<?xml version="1.0" encoding="UTF-8" standalone="no"?>
<!DOCTYPE svg PUBLIC "-//W3C//DTD SVG 1.1//EN"
 "http://www.w3.org/Graphics/SVG/1.1/DTD/svg11.dtd">
<!-- Generated by graphviz version 2.46.0 (20210119.1425)
 -->
<!-- Title: dependencies Pages: 1 -->
<svg width="628pt" height="211pt"
 viewBox="0.00 0.00 628.00 211.00" xmlns="http://www.w3.org/2000/svg" xmlns:xlink="http://www.w3.org/1999/xlink">
<g id="graph0" class="graph" transform="scale(1 1) rotate(0) translate(4 207)">
<title>dependencies</title>
<polygon fill="white" stroke="transparent" points="-4,4 -4,-207 624,-207 624,4 -4,4"/>
<text text-anchor="start" x="289.01" y="-42.4" font-family="sans-serif" font-weight="bold" font-size="14.00">Legend</text>
<polygon fill="#ffffb3" stroke="transparent" points="76,-10 76,-30 96,-30 96,-10 76,-10"/>
<text text-anchor="start" x="99.63" y="-15.4" font-family="sans-serif" font-size="14.00"> &#160;Declarations</text>
<polygon fill="#8dd3c7" stroke="transparent" points="189,-10 189,-30 209,-30 209,-10 189,-10"/>
<text text-anchor="start" x="212.73" y="-15.4" font-family="sans-serif" font-size="14.00"> &#160;Module</text>
<polygon fill="#80b1d3" stroke="transparent" points="275,-10 275,-30 295,-30 295,-10 275,-10"/>
<text text-anchor="start" x="298.78" y="-15.4" font-family="sans-serif" font-size="14.00"> &#160;Bootstrap</text>
<polygon fill="#fdb462" stroke="transparent" points="372,-10 372,-30 392,-30 392,-10 372,-10"/>
<text text-anchor="start" x="395.67" y="-15.4" font-family="sans-serif" font-size="14.00"> &#160;Providers</text>
<polygon fill="#fb8072" stroke="transparent" points="468,-10 468,-30 488,-30 488,-10 468,-10"/>
<text text-anchor="start" x="491.73" y="-15.4" font-family="sans-serif" font-size="14.00"> &#160;Exports</text>
<g id="clust1" class="cluster">
<title>cluster_AppModule</title>
<polygon fill="none" stroke="black" stroke-dasharray="1,5" points="8,-70 8,-195 612,-195 612,-70 8,-70"/>
</g>
<g id="clust3" class="cluster">
<title>cluster_AppModule_imports</title>
<polygon fill="none" stroke="black" points="154,-78 154,-130 604,-130 604,-78 154,-78"/>
</g>
<g id="clust6" class="cluster">
<title>cluster_AppModule_providers</title>
<polygon fill="none" stroke="black" points="16,-78 16,-130 146,-130 146,-78 16,-78"/>
</g>
<!-- MeteoModule -->
<g id="node1" class="node">
<title>MeteoModule</title>
<polygon fill="#8dd3c7" stroke="black" points="595.81,-122 592.81,-126 571.81,-126 568.81,-122 500.19,-122 500.19,-86 595.81,-86 595.81,-122"/>
<text text-anchor="middle" x="548" y="-99.8" font-family="Times,serif" font-size="14.00">MeteoModule</text>
</g>
<!-- AppModule -->
<g id="node5" class="node">
<title>AppModule</title>
<polygon fill="#8dd3c7" stroke="black" points="357.66,-187 354.66,-191 333.66,-191 330.66,-187 274.34,-187 274.34,-151 357.66,-151 357.66,-187"/>
<text text-anchor="middle" x="316" y="-164.8" font-family="Times,serif" font-size="14.00">AppModule</text>
</g>
<!-- MeteoModule&#45;&gt;AppModule -->
<g id="edge1" class="edge">
<title>MeteoModule&#45;&gt;AppModule</title>
<path fill="none" stroke="black" d="M548,-122.28C548,-143.32 548,-175 548,-175 548,-175 367.74,-175 367.74,-175"/>
<polygon fill="black" stroke="black" points="367.74,-171.5 357.74,-175 367.74,-178.5 367.74,-171.5"/>
</g>
<!-- SharedModule -->
<g id="node2" class="node">
<title>SharedModule</title>
<polygon fill="#8dd3c7" stroke="black" points="482.42,-122 479.42,-126 458.42,-126 455.42,-122 383.58,-122 383.58,-86 482.42,-86 482.42,-122"/>
<text text-anchor="middle" x="433" y="-99.8" font-family="Times,serif" font-size="14.00">SharedModule</text>
</g>
<!-- SharedModule&#45;&gt;AppModule -->
<g id="edge2" class="edge">
<title>SharedModule&#45;&gt;AppModule</title>
<path fill="none" stroke="black" d="M433,-122.02C433,-139.37 433,-163 433,-163 433,-163 367.91,-163 367.91,-163"/>
<polygon fill="black" stroke="black" points="367.91,-159.5 357.91,-163 367.91,-166.5 367.91,-159.5"/>
</g>
<!-- StationModule -->
<g id="node3" class="node">
<title>StationModule</title>
<polygon fill="#8dd3c7" stroke="black" points="365.72,-122 362.72,-126 341.72,-126 338.72,-122 266.28,-122 266.28,-86 365.72,-86 365.72,-122"/>
<text text-anchor="middle" x="316" y="-99.8" font-family="Times,serif" font-size="14.00">StationModule</text>
</g>
<!-- StationModule&#45;&gt;AppModule -->
<g id="edge3" class="edge">
<title>StationModule&#45;&gt;AppModule</title>
<path fill="none" stroke="black" d="M316,-122.11C316,-122.11 316,-140.99 316,-140.99"/>
<polygon fill="black" stroke="black" points="312.5,-140.99 316,-150.99 319.5,-140.99 312.5,-140.99"/>
</g>
<!-- StatsModule -->
<g id="node4" class="node">
<title>StatsModule</title>
<polygon fill="#8dd3c7" stroke="black" points="248.27,-122 245.27,-126 224.27,-126 221.27,-122 161.73,-122 161.73,-86 248.27,-86 248.27,-122"/>
<text text-anchor="middle" x="205" y="-99.8" font-family="Times,serif" font-size="14.00">StatsModule</text>
</g>
<!-- StatsModule&#45;&gt;AppModule -->
<g id="edge4" class="edge">
<title>StatsModule&#45;&gt;AppModule</title>
<path fill="none" stroke="black" d="M205,-122.02C205,-139.37 205,-163 205,-163 205,-163 264.04,-163 264.04,-163"/>
<polygon fill="black" stroke="black" points="264.04,-166.5 274.04,-163 264.04,-159.5 264.04,-166.5"/>
</g>
<!-- AppService -->
<g id="node6" class="node">
<title>AppService</title>
<ellipse fill="#fdb462" stroke="black" cx="81" cy="-104" rx="56.74" ry="18"/>
<text text-anchor="middle" x="81" y="-99.8" font-family="Times,serif" font-size="14.00">AppService</text>
</g>
<!-- AppService&#45;&gt;AppModule -->
<g id="edge5" class="edge">
<title>AppService&#45;&gt;AppModule</title>
<path fill="none" stroke="black" d="M81,-122.28C81,-143.32 81,-175 81,-175 81,-175 264.26,-175 264.26,-175"/>
<polygon fill="black" stroke="black" points="264.26,-178.5 274.26,-175 264.26,-171.5 264.26,-178.5"/>
</g>
</g>
</svg>
