<?xml version="1.0" encoding="UTF-8" standalone="no"?>
<!DOCTYPE svg PUBLIC "-//W3C//DTD SVG 1.1//EN"
 "http://www.w3.org/Graphics/SVG/1.1/DTD/svg11.dtd">
<!-- Generated by graphviz version 2.46.0 (20210119.1425)
 -->
<!-- Title: dependencies Pages: 1 -->
<svg width="504pt" height="211pt"
 viewBox="0.00 0.00 504.00 211.00" xmlns="http://www.w3.org/2000/svg" xmlns:xlink="http://www.w3.org/1999/xlink">
<g id="graph0" class="graph" transform="scale(1 1) rotate(0) translate(4 207)">
<title>dependencies</title>
<polygon fill="white" stroke="transparent" points="-4,4 -4,-207 500,-207 500,4 -4,4"/>
<text text-anchor="start" x="227.01" y="-42.4" font-family="sans-serif" font-weight="bold" font-size="14.00">Legend</text>
<polygon fill="#ffffb3" stroke="transparent" points="14,-10 14,-30 34,-30 34,-10 14,-10"/>
<text text-anchor="start" x="37.63" y="-15.4" font-family="sans-serif" font-size="14.00"> &#160;Declarations</text>
<polygon fill="#8dd3c7" stroke="transparent" points="127,-10 127,-30 147,-30 147,-10 127,-10"/>
<text text-anchor="start" x="150.73" y="-15.4" font-family="sans-serif" font-size="14.00"> &#160;Module</text>
<polygon fill="#80b1d3" stroke="transparent" points="213,-10 213,-30 233,-30 233,-10 213,-10"/>
<text text-anchor="start" x="236.78" y="-15.4" font-family="sans-serif" font-size="14.00"> &#160;Bootstrap</text>
<polygon fill="#fdb462" stroke="transparent" points="310,-10 310,-30 330,-30 330,-10 310,-10"/>
<text text-anchor="start" x="333.67" y="-15.4" font-family="sans-serif" font-size="14.00"> &#160;Providers</text>
<polygon fill="#fb8072" stroke="transparent" points="406,-10 406,-30 426,-30 426,-10 406,-10"/>
<text text-anchor="start" x="429.73" y="-15.4" font-family="sans-serif" font-size="14.00"> &#160;Exports</text>
<g id="clust1" class="cluster">
<title>cluster_StationModule</title>
<polygon fill="none" stroke="black" stroke-dasharray="1,5" points="91,-70 91,-195 405,-195 405,-70 91,-70"/>
</g>
<g id="clust3" class="cluster">
<title>cluster_StationModule_imports</title>
<polygon fill="none" stroke="black" points="257,-78 257,-130 397,-130 397,-78 257,-78"/>
</g>
<g id="clust6" class="cluster">
<title>cluster_StationModule_providers</title>
<polygon fill="none" stroke="black" points="99,-78 99,-130 249,-130 249,-78 99,-78"/>
</g>
<!-- StationHttpModule -->
<g id="node1" class="node">
<title>StationHttpModule</title>
<polygon fill="#8dd3c7" stroke="black" points="389.11,-122 386.11,-126 365.11,-126 362.11,-122 264.89,-122 264.89,-86 389.11,-86 389.11,-122"/>
<text text-anchor="middle" x="327" y="-99.8" font-family="Times,serif" font-size="14.00">StationHttpModule</text>
</g>
<!-- StationModule -->
<g id="node2" class="node">
<title>StationModule</title>
<polygon fill="#8dd3c7" stroke="black" points="299.72,-187 296.72,-191 275.72,-191 272.72,-187 200.28,-187 200.28,-151 299.72,-151 299.72,-187"/>
<text text-anchor="middle" x="250" y="-164.8" font-family="Times,serif" font-size="14.00">StationModule</text>
</g>
<!-- StationHttpModule&#45;&gt;StationModule -->
<g id="edge1" class="edge">
<title>StationHttpModule&#45;&gt;StationModule</title>
<path fill="none" stroke="black" d="M282.28,-122.11C282.28,-122.11 282.28,-140.99 282.28,-140.99"/>
<polygon fill="black" stroke="black" points="278.78,-140.99 282.28,-150.99 285.78,-140.99 278.78,-140.99"/>
</g>
<!-- StationService -->
<g id="node3" class="node">
<title>StationService</title>
<ellipse fill="#fdb462" stroke="black" cx="174" cy="-104" rx="67.21" ry="18"/>
<text text-anchor="middle" x="174" y="-99.8" font-family="Times,serif" font-size="14.00">StationService</text>
</g>
<!-- StationService&#45;&gt;StationModule -->
<g id="edge2" class="edge">
<title>StationService&#45;&gt;StationModule</title>
<path fill="none" stroke="black" d="M220.87,-117.15C220.87,-117.15 220.87,-140.69 220.87,-140.69"/>
<polygon fill="black" stroke="black" points="217.37,-140.69 220.87,-150.69 224.37,-140.69 217.37,-140.69"/>
</g>
</g>
</svg>
