<?xml version="1.0" encoding="UTF-8" standalone="no"?>
<!DOCTYPE svg PUBLIC "-//W3C//DTD SVG 1.1//EN"
 "http://www.w3.org/Graphics/SVG/1.1/DTD/svg11.dtd">
<!-- Generated by graphviz version 2.46.0 (20210119.1425)
 -->
<!-- Title: dependencies Pages: 1 -->
<svg width="504pt" height="211pt"
 viewBox="0.00 0.00 504.00 211.00" xmlns="http://www.w3.org/2000/svg" xmlns:xlink="http://www.w3.org/1999/xlink">
<g id="graph0" class="graph" transform="scale(1 1) rotate(0) translate(4 207)">
<title>dependencies</title>
<polygon fill="white" stroke="transparent" points="-4,4 -4,-207 500,-207 500,4 -4,4"/>
<text text-anchor="start" x="227.01" y="-42.4" font-family="sans-serif" font-weight="bold" font-size="14.00">Legend</text>
<polygon fill="#ffffb3" stroke="transparent" points="14,-10 14,-30 34,-30 34,-10 14,-10"/>
<text text-anchor="start" x="37.63" y="-15.4" font-family="sans-serif" font-size="14.00"> &#160;Declarations</text>
<polygon fill="#8dd3c7" stroke="transparent" points="127,-10 127,-30 147,-30 147,-10 127,-10"/>
<text text-anchor="start" x="150.73" y="-15.4" font-family="sans-serif" font-size="14.00"> &#160;Module</text>
<polygon fill="#80b1d3" stroke="transparent" points="213,-10 213,-30 233,-30 233,-10 213,-10"/>
<text text-anchor="start" x="236.78" y="-15.4" font-family="sans-serif" font-size="14.00"> &#160;Bootstrap</text>
<polygon fill="#fdb462" stroke="transparent" points="310,-10 310,-30 330,-30 330,-10 310,-10"/>
<text text-anchor="start" x="333.67" y="-15.4" font-family="sans-serif" font-size="14.00"> &#160;Providers</text>
<polygon fill="#fb8072" stroke="transparent" points="406,-10 406,-30 426,-30 426,-10 406,-10"/>
<text text-anchor="start" x="429.73" y="-15.4" font-family="sans-serif" font-size="14.00"> &#160;Exports</text>
<g id="clust1" class="cluster">
<title>cluster_StatsModule</title>
<polygon fill="none" stroke="black" stroke-dasharray="1,5" points="99,-70 99,-195 397,-195 397,-70 99,-70"/>
</g>
<g id="clust3" class="cluster">
<title>cluster_StatsModule_imports</title>
<polygon fill="none" stroke="black" points="249,-78 249,-130 389,-130 389,-78 249,-78"/>
</g>
<g id="clust6" class="cluster">
<title>cluster_StatsModule_providers</title>
<polygon fill="none" stroke="black" points="107,-78 107,-130 241,-130 241,-78 107,-78"/>
</g>
<!-- StationHttpModule -->
<g id="node1" class="node">
<title>StationHttpModule</title>
<polygon fill="#8dd3c7" stroke="black" points="381.11,-122 378.11,-126 357.11,-126 354.11,-122 256.89,-122 256.89,-86 381.11,-86 381.11,-122"/>
<text text-anchor="middle" x="319" y="-99.8" font-family="Times,serif" font-size="14.00">StationHttpModule</text>
</g>
<!-- StatsModule -->
<g id="node2" class="node">
<title>StatsModule</title>
<polygon fill="#8dd3c7" stroke="black" points="289.27,-187 286.27,-191 265.27,-191 262.27,-187 202.73,-187 202.73,-151 289.27,-151 289.27,-187"/>
<text text-anchor="middle" x="246" y="-164.8" font-family="Times,serif" font-size="14.00">StatsModule</text>
</g>
<!-- StationHttpModule&#45;&gt;StatsModule -->
<g id="edge1" class="edge">
<title>StationHttpModule&#45;&gt;StatsModule</title>
<path fill="none" stroke="black" d="M273.17,-122.11C273.17,-122.11 273.17,-140.99 273.17,-140.99"/>
<polygon fill="black" stroke="black" points="269.67,-140.99 273.17,-150.99 276.67,-140.99 269.67,-140.99"/>
</g>
<!-- StatsService -->
<g id="node3" class="node">
<title>StatsService</title>
<ellipse fill="#fdb462" stroke="black" cx="174" cy="-104" rx="58.54" ry="18"/>
<text text-anchor="middle" x="174" y="-99.8" font-family="Times,serif" font-size="14.00">StatsService</text>
</g>
<!-- StatsService&#45;&gt;StatsModule -->
<g id="edge2" class="edge">
<title>StatsService&#45;&gt;StatsModule</title>
<path fill="none" stroke="black" d="M217.69,-116.23C217.69,-116.23 217.69,-140.68 217.69,-140.68"/>
<polygon fill="black" stroke="black" points="214.19,-140.68 217.69,-150.68 221.19,-140.68 214.19,-140.68"/>
</g>
</g>
</svg>
