<?xml version="1.0" encoding="UTF-8" standalone="no"?>
<!DOCTYPE svg PUBLIC "-//W3C//DTD SVG 1.1//EN"
 "http://www.w3.org/Graphics/SVG/1.1/DTD/svg11.dtd">
<!-- Generated by graphviz version 2.46.0 (20210119.1425)
 -->
<!-- Title: dependencies Pages: 1 -->
<svg width="504pt" height="211pt"
 viewBox="0.00 0.00 504.00 211.00" xmlns="http://www.w3.org/2000/svg" xmlns:xlink="http://www.w3.org/1999/xlink">
<g id="graph0" class="graph" transform="scale(1 1) rotate(0) translate(4 207)">
<title>dependencies</title>
<polygon fill="white" stroke="transparent" points="-4,4 -4,-207 500,-207 500,4 -4,4"/>
<text text-anchor="start" x="227.01" y="-42.4" font-family="sans-serif" font-weight="bold" font-size="14.00">Legend</text>
<polygon fill="#ffffb3" stroke="transparent" points="14,-10 14,-30 34,-30 34,-10 14,-10"/>
<text text-anchor="start" x="37.63" y="-15.4" font-family="sans-serif" font-size="14.00"> &#160;Declarations</text>
<polygon fill="#8dd3c7" stroke="transparent" points="127,-10 127,-30 147,-30 147,-10 127,-10"/>
<text text-anchor="start" x="150.73" y="-15.4" font-family="sans-serif" font-size="14.00"> &#160;Module</text>
<polygon fill="#80b1d3" stroke="transparent" points="213,-10 213,-30 233,-30 233,-10 213,-10"/>
<text text-anchor="start" x="236.78" y="-15.4" font-family="sans-serif" font-size="14.00"> &#160;Bootstrap</text>
<polygon fill="#fdb462" stroke="transparent" points="310,-10 310,-30 330,-30 330,-10 310,-10"/>
<text text-anchor="start" x="333.67" y="-15.4" font-family="sans-serif" font-size="14.00"> &#160;Providers</text>
<polygon fill="#fb8072" stroke="transparent" points="406,-10 406,-30 426,-30 426,-10 406,-10"/>
<text text-anchor="start" x="429.73" y="-15.4" font-family="sans-serif" font-size="14.00"> &#160;Exports</text>
<g id="clust1" class="cluster">
<title>cluster_StatsModule</title>
<polygon fill="none" stroke="black" stroke-dasharray="1,5" points="41,-70 41,-195 455,-195 455,-70 41,-70"/>
</g>
<g id="clust6" class="cluster">
<title>cluster_StatsModule_providers</title>
<polygon fill="none" stroke="black" points="313,-78 313,-130 447,-130 447,-78 313,-78"/>
</g>
<g id="clust3" class="cluster">
<title>cluster_StatsModule_imports</title>
<polygon fill="none" stroke="black" points="49,-78 49,-130 305,-130 305,-78 49,-78"/>
</g>
<!-- SharedModule -->
<g id="node1" class="node">
<title>SharedModule</title>
<polygon fill="#8dd3c7" stroke="black" points="297.42,-122 294.42,-126 273.42,-126 270.42,-122 198.58,-122 198.58,-86 297.42,-86 297.42,-122"/>
<text text-anchor="middle" x="248" y="-99.8" font-family="Times,serif" font-size="14.00">SharedModule</text>
</g>
<!-- StatsModule -->
<g id="node3" class="node">
<title>StatsModule</title>
<polygon fill="#8dd3c7" stroke="black" points="291.27,-187 288.27,-191 267.27,-191 264.27,-187 204.73,-187 204.73,-151 291.27,-151 291.27,-187"/>
<text text-anchor="middle" x="248" y="-164.8" font-family="Times,serif" font-size="14.00">StatsModule</text>
</g>
<!-- SharedModule&#45;&gt;StatsModule -->
<g id="edge1" class="edge">
<title>SharedModule&#45;&gt;StatsModule</title>
<path fill="none" stroke="black" d="M248,-122.11C248,-122.11 248,-140.99 248,-140.99"/>
<polygon fill="black" stroke="black" points="244.5,-140.99 248,-150.99 251.5,-140.99 244.5,-140.99"/>
</g>
<!-- StationHttpModule -->
<g id="node2" class="node">
<title>StationHttpModule</title>
<polygon fill="#8dd3c7" stroke="black" points="181.11,-122 178.11,-126 157.11,-126 154.11,-122 56.89,-122 56.89,-86 181.11,-86 181.11,-122"/>
<text text-anchor="middle" x="119" y="-99.8" font-family="Times,serif" font-size="14.00">StationHttpModule</text>
</g>
<!-- StationHttpModule&#45;&gt;StatsModule -->
<g id="edge2" class="edge">
<title>StationHttpModule&#45;&gt;StatsModule</title>
<path fill="none" stroke="black" d="M119,-122.11C119,-141.34 119,-169 119,-169 119,-169 194.69,-169 194.69,-169"/>
<polygon fill="black" stroke="black" points="194.69,-172.5 204.69,-169 194.69,-165.5 194.69,-172.5"/>
</g>
<!-- StatsService -->
<g id="node4" class="node">
<title>StatsService</title>
<ellipse fill="#fdb462" stroke="black" cx="380" cy="-104" rx="58.54" ry="18"/>
<text text-anchor="middle" x="380" y="-99.8" font-family="Times,serif" font-size="14.00">StatsService</text>
</g>
<!-- StatsService&#45;&gt;StatsModule -->
<g id="edge3" class="edge">
<title>StatsService&#45;&gt;StatsModule</title>
<path fill="none" stroke="black" d="M380,-122.11C380,-141.34 380,-169 380,-169 380,-169 301.59,-169 301.59,-169"/>
<polygon fill="black" stroke="black" points="301.59,-165.5 291.59,-169 301.59,-172.5 301.59,-165.5"/>
</g>
</g>
</svg>
