<?xml version="1.0" encoding="UTF-8" standalone="no"?>
<!DOCTYPE svg PUBLIC "-//W3C//DTD SVG 1.1//EN"
 "http://www.w3.org/Graphics/SVG/1.1/DTD/svg11.dtd">
<!-- Generated by graphviz version 2.46.0 (20210119.1425)
 -->
<!-- Title: dependencies Pages: 1 -->
<svg width="767pt" height="211pt"
 viewBox="0.00 0.00 767.00 211.00" xmlns="http://www.w3.org/2000/svg" xmlns:xlink="http://www.w3.org/1999/xlink">
<g id="graph0" class="graph" transform="scale(1 1) rotate(0) translate(4 207)">
<title>dependencies</title>
<polygon fill="white" stroke="transparent" points="-4,4 -4,-207 763,-207 763,4 -4,4"/>
<text text-anchor="start" x="358.51" y="-42.4" font-family="sans-serif" font-weight="bold" font-size="14.00">Legend</text>
<polygon fill="#ffffb3" stroke="transparent" points="145.5,-10 145.5,-30 165.5,-30 165.5,-10 145.5,-10"/>
<text text-anchor="start" x="169.13" y="-15.4" font-family="sans-serif" font-size="14.00"> &#160;Declarations</text>
<polygon fill="#8dd3c7" stroke="transparent" points="258.5,-10 258.5,-30 278.5,-30 278.5,-10 258.5,-10"/>
<text text-anchor="start" x="282.23" y="-15.4" font-family="sans-serif" font-size="14.00"> &#160;Module</text>
<polygon fill="#80b1d3" stroke="transparent" points="344.5,-10 344.5,-30 364.5,-30 364.5,-10 344.5,-10"/>
<text text-anchor="start" x="368.28" y="-15.4" font-family="sans-serif" font-size="14.00"> &#160;Bootstrap</text>
<polygon fill="#fdb462" stroke="transparent" points="441.5,-10 441.5,-30 461.5,-30 461.5,-10 441.5,-10"/>
<text text-anchor="start" x="465.17" y="-15.4" font-family="sans-serif" font-size="14.00"> &#160;Providers</text>
<polygon fill="#fb8072" stroke="transparent" points="537.5,-10 537.5,-30 557.5,-30 557.5,-10 537.5,-10"/>
<text text-anchor="start" x="561.23" y="-15.4" font-family="sans-serif" font-size="14.00"> &#160;Exports</text>
<g id="clust1" class="cluster">
<title>cluster_AppModule</title>
<polygon fill="none" stroke="black" stroke-dasharray="1,5" points="8,-70 8,-195 751,-195 751,-70 8,-70"/>
</g>
<g id="clust6" class="cluster">
<title>cluster_AppModule_providers</title>
<polygon fill="none" stroke="black" points="613,-78 613,-130 743,-130 743,-78 613,-78"/>
</g>
<g id="clust3" class="cluster">
<title>cluster_AppModule_imports</title>
<polygon fill="none" stroke="black" points="16,-78 16,-130 605,-130 605,-78 16,-78"/>
</g>
<!-- ConfigurationModule -->
<g id="node1" class="node">
<title>ConfigurationModule</title>
<polygon fill="#8dd3c7" stroke="black" points="597.09,-122 594.09,-126 573.09,-126 570.09,-122 458.91,-122 458.91,-86 597.09,-86 597.09,-122"/>
<text text-anchor="middle" x="528" y="-99.8" font-family="Times,serif" font-size="14.00">ConfigurationModule</text>
</g>
<!-- AppModule -->
<g id="node6" class="node">
<title>AppModule</title>
<polygon fill="#8dd3c7" stroke="black" points="387.66,-187 384.66,-191 363.66,-191 360.66,-187 304.34,-187 304.34,-151 387.66,-151 387.66,-187"/>
<text text-anchor="middle" x="346" y="-164.8" font-family="Times,serif" font-size="14.00">AppModule</text>
</g>
<!-- ConfigurationModule&#45;&gt;AppModule -->
<g id="edge1" class="edge">
<title>ConfigurationModule&#45;&gt;AppModule</title>
<path fill="none" stroke="black" d="M528,-122.02C528,-139.37 528,-163 528,-163 528,-163 397.75,-163 397.75,-163"/>
<polygon fill="black" stroke="black" points="397.75,-159.5 387.75,-163 397.75,-166.5 397.75,-159.5"/>
</g>
<!-- LogModule -->
<g id="node2" class="node">
<title>LogModule</title>
<polygon fill="#8dd3c7" stroke="black" points="441.1,-122 438.1,-126 417.1,-126 414.1,-122 358.9,-122 358.9,-86 441.1,-86 441.1,-122"/>
<text text-anchor="middle" x="400" y="-99.8" font-family="Times,serif" font-size="14.00">LogModule</text>
</g>
<!-- LogModule&#45;&gt;AppModule -->
<g id="edge2" class="edge">
<title>LogModule&#45;&gt;AppModule</title>
<path fill="none" stroke="black" d="M373.39,-122.11C373.39,-122.11 373.39,-140.99 373.39,-140.99"/>
<polygon fill="black" stroke="black" points="369.89,-140.99 373.39,-150.99 376.89,-140.99 369.89,-140.99"/>
</g>
<!-- MeteoModule -->
<g id="node3" class="node">
<title>MeteoModule</title>
<polygon fill="#8dd3c7" stroke="black" points="340.81,-122 337.81,-126 316.81,-126 313.81,-122 245.19,-122 245.19,-86 340.81,-86 340.81,-122"/>
<text text-anchor="middle" x="293" y="-99.8" font-family="Times,serif" font-size="14.00">MeteoModule</text>
</g>
<!-- MeteoModule&#45;&gt;AppModule -->
<g id="edge3" class="edge">
<title>MeteoModule&#45;&gt;AppModule</title>
<path fill="none" stroke="black" d="M322.41,-122.11C322.41,-122.11 322.41,-140.99 322.41,-140.99"/>
<polygon fill="black" stroke="black" points="318.91,-140.99 322.41,-150.99 325.91,-140.99 318.91,-140.99"/>
</g>
<!-- StationModule -->
<g id="node4" class="node">
<title>StationModule</title>
<polygon fill="#8dd3c7" stroke="black" points="227.72,-122 224.72,-126 203.72,-126 200.72,-122 128.28,-122 128.28,-86 227.72,-86 227.72,-122"/>
<text text-anchor="middle" x="178" y="-99.8" font-family="Times,serif" font-size="14.00">StationModule</text>
</g>
<!-- StationModule&#45;&gt;AppModule -->
<g id="edge4" class="edge">
<title>StationModule&#45;&gt;AppModule</title>
<path fill="none" stroke="black" d="M178,-122.02C178,-139.37 178,-163 178,-163 178,-163 294.04,-163 294.04,-163"/>
<polygon fill="black" stroke="black" points="294.04,-166.5 304.04,-163 294.04,-159.5 294.04,-166.5"/>
</g>
<!-- StatsModule -->
<g id="node5" class="node">
<title>StatsModule</title>
<polygon fill="#8dd3c7" stroke="black" points="110.27,-122 107.27,-126 86.27,-126 83.27,-122 23.73,-122 23.73,-86 110.27,-86 110.27,-122"/>
<text text-anchor="middle" x="67" y="-99.8" font-family="Times,serif" font-size="14.00">StatsModule</text>
</g>
<!-- StatsModule&#45;&gt;AppModule -->
<g id="edge5" class="edge">
<title>StatsModule&#45;&gt;AppModule</title>
<path fill="none" stroke="black" d="M67,-122.28C67,-143.32 67,-175 67,-175 67,-175 294.23,-175 294.23,-175"/>
<polygon fill="black" stroke="black" points="294.23,-178.5 304.23,-175 294.23,-171.5 294.23,-178.5"/>
</g>
<!-- AppService -->
<g id="node7" class="node">
<title>AppService</title>
<ellipse fill="#fdb462" stroke="black" cx="678" cy="-104" rx="56.74" ry="18"/>
<text text-anchor="middle" x="678" y="-99.8" font-family="Times,serif" font-size="14.00">AppService</text>
</g>
<!-- AppService&#45;&gt;AppModule -->
<g id="edge6" class="edge">
<title>AppService&#45;&gt;AppModule</title>
<path fill="none" stroke="black" d="M678,-122.28C678,-143.32 678,-175 678,-175 678,-175 397.71,-175 397.71,-175"/>
<polygon fill="black" stroke="black" points="397.71,-171.5 387.71,-175 397.71,-178.5 397.71,-171.5"/>
</g>
</g>
</svg>
