<?xml version="1.0" encoding="UTF-8" standalone="no"?>
<!DOCTYPE svg PUBLIC "-//W3C//DTD SVG 1.1//EN"
 "http://www.w3.org/Graphics/SVG/1.1/DTD/svg11.dtd">
<!-- Generated by graphviz version 2.46.0 (20210119.1425)
 -->
<!-- Title: dependencies Pages: 1 -->
<svg width="504pt" height="211pt"
 viewBox="0.00 0.00 504.00 211.00" xmlns="http://www.w3.org/2000/svg" xmlns:xlink="http://www.w3.org/1999/xlink">
<g id="graph0" class="graph" transform="scale(1 1) rotate(0) translate(4 207)">
<title>dependencies</title>
<polygon fill="white" stroke="transparent" points="-4,4 -4,-207 500,-207 500,4 -4,4"/>
<text text-anchor="start" x="227.01" y="-42.4" font-family="sans-serif" font-weight="bold" font-size="14.00">Legend</text>
<polygon fill="#ffffb3" stroke="transparent" points="14,-10 14,-30 34,-30 34,-10 14,-10"/>
<text text-anchor="start" x="37.63" y="-15.4" font-family="sans-serif" font-size="14.00"> &#160;Declarations</text>
<polygon fill="#8dd3c7" stroke="transparent" points="127,-10 127,-30 147,-30 147,-10 127,-10"/>
<text text-anchor="start" x="150.73" y="-15.4" font-family="sans-serif" font-size="14.00"> &#160;Module</text>
<polygon fill="#80b1d3" stroke="transparent" points="213,-10 213,-30 233,-30 233,-10 213,-10"/>
<text text-anchor="start" x="236.78" y="-15.4" font-family="sans-serif" font-size="14.00"> &#160;Bootstrap</text>
<polygon fill="#fdb462" stroke="transparent" points="310,-10 310,-30 330,-30 330,-10 310,-10"/>
<text text-anchor="start" x="333.67" y="-15.4" font-family="sans-serif" font-size="14.00"> &#160;Providers</text>
<polygon fill="#fb8072" stroke="transparent" points="406,-10 406,-30 426,-30 426,-10 406,-10"/>
<text text-anchor="start" x="429.73" y="-15.4" font-family="sans-serif" font-size="14.00"> &#160;Exports</text>
<g id="clust1" class="cluster">
<title>cluster_MeteoModule</title>
<polygon fill="none" stroke="black" stroke-dasharray="1,5" points="37,-70 37,-195 459,-195 459,-70 37,-70"/>
</g>
<g id="clust6" class="cluster">
<title>cluster_MeteoModule_providers</title>
<polygon fill="none" stroke="black" points="305,-78 305,-130 451,-130 451,-78 305,-78"/>
</g>
<g id="clust3" class="cluster">
<title>cluster_MeteoModule_imports</title>
<polygon fill="none" stroke="black" points="45,-78 45,-130 297,-130 297,-78 45,-78"/>
</g>
<!-- MeteoHttpModule -->
<g id="node1" class="node">
<title>MeteoHttpModule</title>
<polygon fill="#8dd3c7" stroke="black" points="289.2,-122 286.2,-126 265.2,-126 262.2,-122 168.8,-122 168.8,-86 289.2,-86 289.2,-122"/>
<text text-anchor="middle" x="229" y="-99.8" font-family="Times,serif" font-size="14.00">MeteoHttpModule</text>
</g>
<!-- MeteoModule -->
<g id="node3" class="node">
<title>MeteoModule</title>
<polygon fill="#8dd3c7" stroke="black" points="276.81,-187 273.81,-191 252.81,-191 249.81,-187 181.19,-187 181.19,-151 276.81,-151 276.81,-187"/>
<text text-anchor="middle" x="229" y="-164.8" font-family="Times,serif" font-size="14.00">MeteoModule</text>
</g>
<!-- MeteoHttpModule&#45;&gt;MeteoModule -->
<g id="edge1" class="edge">
<title>MeteoHttpModule&#45;&gt;MeteoModule</title>
<path fill="none" stroke="black" d="M229,-122.11C229,-122.11 229,-140.99 229,-140.99"/>
<polygon fill="black" stroke="black" points="225.5,-140.99 229,-150.99 232.5,-140.99 225.5,-140.99"/>
</g>
<!-- SharedModule -->
<g id="node2" class="node">
<title>SharedModule</title>
<polygon fill="#8dd3c7" stroke="black" points="151.42,-122 148.42,-126 127.42,-126 124.42,-122 52.58,-122 52.58,-86 151.42,-86 151.42,-122"/>
<text text-anchor="middle" x="102" y="-99.8" font-family="Times,serif" font-size="14.00">SharedModule</text>
</g>
<!-- SharedModule&#45;&gt;MeteoModule -->
<g id="edge2" class="edge">
<title>SharedModule&#45;&gt;MeteoModule</title>
<path fill="none" stroke="black" d="M102,-122.11C102,-141.34 102,-169 102,-169 102,-169 170.99,-169 170.99,-169"/>
<polygon fill="black" stroke="black" points="170.99,-172.5 180.99,-169 170.99,-165.5 170.99,-172.5"/>
</g>
<!-- MeteoService -->
<g id="node4" class="node">
<title>MeteoService</title>
<ellipse fill="#fdb462" stroke="black" cx="378" cy="-104" rx="64.82" ry="18"/>
<text text-anchor="middle" x="378" y="-99.8" font-family="Times,serif" font-size="14.00">MeteoService</text>
</g>
<!-- MeteoService&#45;&gt;MeteoModule -->
<g id="edge3" class="edge">
<title>MeteoService&#45;&gt;MeteoModule</title>
<path fill="none" stroke="black" d="M378,-122.11C378,-141.34 378,-169 378,-169 378,-169 286.96,-169 286.96,-169"/>
<polygon fill="black" stroke="black" points="286.96,-165.5 276.96,-169 286.96,-172.5 286.96,-165.5"/>
</g>
</g>
</svg>
