<?xml version="1.0" encoding="UTF-8" standalone="no"?>
<!DOCTYPE svg PUBLIC "-//W3C//DTD SVG 1.1//EN"
 "http://www.w3.org/Graphics/SVG/1.1/DTD/svg11.dtd">
<!-- Generated by graphviz version 2.46.0 (20210119.1425)
 -->
<!-- Title: dependencies Pages: 1 -->
<svg width="504pt" height="211pt"
 viewBox="0.00 0.00 504.00 211.00" xmlns="http://www.w3.org/2000/svg" xmlns:xlink="http://www.w3.org/1999/xlink">
<g id="graph0" class="graph" transform="scale(1 1) rotate(0) translate(4 207)">
<title>dependencies</title>
<polygon fill="white" stroke="transparent" points="-4,4 -4,-207 500,-207 500,4 -4,4"/>
<text text-anchor="start" x="227.01" y="-42.4" font-family="sans-serif" font-weight="bold" font-size="14.00">Legend</text>
<polygon fill="#ffffb3" stroke="transparent" points="14,-10 14,-30 34,-30 34,-10 14,-10"/>
<text text-anchor="start" x="37.63" y="-15.4" font-family="sans-serif" font-size="14.00"> &#160;Declarations</text>
<polygon fill="#8dd3c7" stroke="transparent" points="127,-10 127,-30 147,-30 147,-10 127,-10"/>
<text text-anchor="start" x="150.73" y="-15.4" font-family="sans-serif" font-size="14.00"> &#160;Module</text>
<polygon fill="#80b1d3" stroke="transparent" points="213,-10 213,-30 233,-30 233,-10 213,-10"/>
<text text-anchor="start" x="236.78" y="-15.4" font-family="sans-serif" font-size="14.00"> &#160;Bootstrap</text>
<polygon fill="#fdb462" stroke="transparent" points="310,-10 310,-30 330,-30 330,-10 310,-10"/>
<text text-anchor="start" x="333.67" y="-15.4" font-family="sans-serif" font-size="14.00"> &#160;Providers</text>
<polygon fill="#fb8072" stroke="transparent" points="406,-10 406,-30 426,-30 426,-10 406,-10"/>
<text text-anchor="start" x="429.73" y="-15.4" font-family="sans-serif" font-size="14.00"> &#160;Exports</text>
<g id="clust1" class="cluster">
<title>cluster_StationModule</title>
<polygon fill="none" stroke="black" stroke-dasharray="1,5" points="33,-70 33,-195 463,-195 463,-70 33,-70"/>
</g>
<g id="clust3" class="cluster">
<title>cluster_StationModule_imports</title>
<polygon fill="none" stroke="black" points="199,-78 199,-130 455,-130 455,-78 199,-78"/>
</g>
<g id="clust6" class="cluster">
<title>cluster_StationModule_providers</title>
<polygon fill="none" stroke="black" points="41,-78 41,-130 191,-130 191,-78 41,-78"/>
</g>
<!-- SharedModule -->
<g id="node1" class="node">
<title>SharedModule</title>
<polygon fill="#8dd3c7" stroke="black" points="447.42,-122 444.42,-126 423.42,-126 420.42,-122 348.58,-122 348.58,-86 447.42,-86 447.42,-122"/>
<text text-anchor="middle" x="398" y="-99.8" font-family="Times,serif" font-size="14.00">SharedModule</text>
</g>
<!-- StationModule -->
<g id="node3" class="node">
<title>StationModule</title>
<polygon fill="#8dd3c7" stroke="black" points="318.72,-187 315.72,-191 294.72,-191 291.72,-187 219.28,-187 219.28,-151 318.72,-151 318.72,-187"/>
<text text-anchor="middle" x="269" y="-164.8" font-family="Times,serif" font-size="14.00">StationModule</text>
</g>
<!-- SharedModule&#45;&gt;StationModule -->
<g id="edge1" class="edge">
<title>SharedModule&#45;&gt;StationModule</title>
<path fill="none" stroke="black" d="M398,-122.11C398,-141.34 398,-169 398,-169 398,-169 328.87,-169 328.87,-169"/>
<polygon fill="black" stroke="black" points="328.87,-165.5 318.87,-169 328.87,-172.5 328.87,-165.5"/>
</g>
<!-- StationHttpModule -->
<g id="node2" class="node">
<title>StationHttpModule</title>
<polygon fill="#8dd3c7" stroke="black" points="331.11,-122 328.11,-126 307.11,-126 304.11,-122 206.89,-122 206.89,-86 331.11,-86 331.11,-122"/>
<text text-anchor="middle" x="269" y="-99.8" font-family="Times,serif" font-size="14.00">StationHttpModule</text>
</g>
<!-- StationHttpModule&#45;&gt;StationModule -->
<g id="edge2" class="edge">
<title>StationHttpModule&#45;&gt;StationModule</title>
<path fill="none" stroke="black" d="M269,-122.11C269,-122.11 269,-140.99 269,-140.99"/>
<polygon fill="black" stroke="black" points="265.5,-140.99 269,-150.99 272.5,-140.99 265.5,-140.99"/>
</g>
<!-- StationService -->
<g id="node4" class="node">
<title>StationService</title>
<ellipse fill="#fdb462" stroke="black" cx="116" cy="-104" rx="67.21" ry="18"/>
<text text-anchor="middle" x="116" y="-99.8" font-family="Times,serif" font-size="14.00">StationService</text>
</g>
<!-- StationService&#45;&gt;StationModule -->
<g id="edge3" class="edge">
<title>StationService&#45;&gt;StationModule</title>
<path fill="none" stroke="black" d="M116,-122.11C116,-141.34 116,-169 116,-169 116,-169 209.33,-169 209.33,-169"/>
<polygon fill="black" stroke="black" points="209.33,-172.5 219.33,-169 209.33,-165.5 209.33,-172.5"/>
</g>
</g>
</svg>
